<svg width="124" height="68" viewBox="0 0 124 68" fill="none" xmlns="http://www.w3.org/2000/svg">
<path d="M15.7074 30.548C13.4237 30.548 11.321 30.1704 9.39939 29.4151C7.47774 28.6598 5.80674 27.6107 4.38638 26.2679C2.99388 24.8972 1.90773 23.2887 1.12793 21.4424C0.375976 19.5681 0 17.512 0 15.274C0 13.064 0.389901 11.0359 1.1697 9.18959C1.97735 7.3153 3.09136 5.69279 4.51171 4.32204C5.93206 2.9513 7.61699 1.88827 9.56649 1.13296C11.516 0.377654 13.6465 0 15.9581 0C17.3506 0 18.7013 0.181834 20.0103 0.545501C21.3471 0.881194 22.6003 1.38473 23.77 2.05612C24.9397 2.7275 25.9841 3.56673 26.9032 4.57381L21.9319 10.3645C21.4585 9.833 20.9293 9.35743 20.3445 8.93782C19.7596 8.5182 19.0912 8.1965 18.3393 7.9727C17.6152 7.72093 16.8075 7.59505 15.9163 7.59505C14.8859 7.59505 13.9111 7.77688 12.9921 8.14055C12.1008 8.47624 11.321 8.97978 10.6526 9.65116C9.98425 10.3225 9.45509 11.1338 9.06519 12.0849C8.70314 13.0361 8.52212 14.1271 8.52212 15.3579C8.52212 16.5329 8.70314 17.5959 9.06519 18.547C9.45509 19.4702 9.99817 20.2674 10.6944 20.9388C11.4185 21.5822 12.2679 22.0858 13.2427 22.4494C14.2453 22.8131 15.3593 22.9949 16.5847 22.9949C17.4481 22.9949 18.2557 22.8691 19.0077 22.6173C19.7875 22.3655 20.4976 22.0298 21.1382 21.6102C21.7787 21.1906 22.3497 20.729 22.851 20.2255L26.7778 26.4778C26.0816 27.261 25.1347 27.9604 23.9371 28.5758C22.7674 29.1913 21.4585 29.6808 20.0103 30.0445C18.5899 30.3802 17.1556 30.548 15.7074 30.548Z" fill="#FFFAE0"/>
<path d="M27.0774 30.1284L38.7327 0.755309H45.4167L56.9884 30.1284H48.7587L43.7457 16.4909C43.4672 15.7356 43.2165 15.0362 42.9937 14.3928C42.7709 13.7494 42.5621 13.12 42.3671 12.5046C42.1722 11.8891 41.9772 11.2597 41.7823 10.6163C41.6152 9.97287 41.462 9.27351 41.3227 8.5182L42.6595 8.47624C42.4924 9.2875 42.3114 10.0148 42.1165 10.6582C41.9494 11.3017 41.7683 11.9171 41.5734 12.5046C41.3784 13.092 41.1556 13.7074 40.905 14.3509C40.6822 14.9943 40.4315 15.7076 40.153 16.4909L35.14 30.1284H27.0774ZM32.7588 25.2609L35.2236 19.3862H48.7587L51.0563 25.2609H32.7588Z" fill="#FFFAE0"/>
<path d="M59.9704 30.1284V0.755309H68.2419V30.1284H59.9704ZM63.8973 19.4282V12.7563H79.0199V19.4282H63.8973ZM63.8973 7.93074V0.755309H80.6491V7.93074H63.8973Z" fill="#FFFAE0"/>
<path d="M1.75455 67.5804V38.2073H23.0181V45.047H9.69182V60.7406H23.6447V67.5804H1.75455ZM5.68141 55.9151V49.453H21.3471V55.9151H5.68141Z" fill="#FFFAE0"/>
<path d="M29.2918 67.5804V38.2073H37.5633V60.405H50.3047V67.5804H29.2918Z" fill="#FFFAE0"/>
<path d="M54.9117 67.5804V38.2073H63.1832V60.405H75.9246V67.5804H54.9117Z" fill="#FFFAE0"/>
<path d="M93.5014 68C91.2456 68 89.1708 67.6223 87.277 66.867C85.3832 66.1117 83.74 65.0487 82.3475 63.678C80.955 62.3072 79.8688 60.6987 79.089 58.8524C78.3371 56.9781 77.9611 54.936 77.9611 52.726C77.9611 50.488 78.3371 48.4459 79.089 46.5996C79.8688 44.7533 80.955 43.1448 82.3475 41.774C83.74 40.4033 85.3832 39.3402 87.277 38.5849C89.1708 37.8296 91.2456 37.452 93.5014 37.452C95.7573 37.452 97.8182 37.8296 99.6842 38.5849C101.578 39.3402 103.221 40.4033 104.614 41.774C106.034 43.1448 107.12 44.7533 107.872 46.5996C108.624 48.4459 109 50.474 109 52.684C109 54.922 108.624 56.9781 107.872 58.8524C107.12 60.6987 106.034 62.3072 104.614 63.678C103.221 65.0487 101.578 66.1117 99.6842 66.867C97.8182 67.6223 95.7573 68 93.5014 68ZM93.5014 60.2791C94.504 60.2791 95.437 60.0972 96.3004 59.7336C97.1637 59.3699 97.9157 58.8524 98.5562 58.181C99.1968 57.4816 99.6842 56.6704 100.018 55.7472C100.38 54.8241 100.561 53.817 100.561 52.726C100.561 51.635 100.38 50.6279 100.018 49.7048C100.767 48.5666 101.407 45.9597 100.767 45.2883C100.126 44.589 97.503 44.6327 96.3004 45.7184C95.437 45.3547 94.504 45.1729 93.5014 45.1729C92.471 45.1729 91.5241 45.3547 90.6607 45.7184C89.0175 45.2883 86.3944 44.589 85.7538 45.2883C85.1133 45.9597 86.4065 48.5666 86.901 49.7048C86.5668 50.5999 86.3997 51.607 86.3997 52.726C86.3997 53.817 86.5668 54.8241 86.901 55.7472C87.263 56.6704 87.7643 57.4816 88.4049 58.181C89.0454 58.8524 89.7974 59.3699 90.6607 59.7336C91.5241 60.0972 92.471 60.2791 93.5014 60.2791Z" fill="#FFFAE0"/>
<path d="M91.7 4C91.7 2.89375 92.5491 2 93.6 2H112.6H116.4C120.598 2 124 5.58125 124 10C124 14.4187 120.598 18 116.4 18H114.5C114.5 21.3125 111.947 24 108.8 24H97.4C94.2531 24 91.7 21.3125 91.7 18V4ZM114.5 14H116.4C118.496 14 120.2 12.2062 120.2 10C120.2 7.79375 118.496 6 116.4 6H114.5V14ZM87.9 26H118.3C119.351 26 120.2 26.8937 120.2 28C120.2 29.1063 119.351 30 118.3 30H87.9C86.8491 30 86 29.1063 86 28C86 26.8937 86.8491 26 87.9 26Z" fill="#FF96C3"/>
</svg>
