<svg width="37" height="25" viewBox="0 0 37 25" fill="none" xmlns="http://www.w3.org/2000/svg">
    <path fill-rule="evenodd" clip-rule="evenodd" d="M1.92361 0C0.861503 0 0.000329486 0.861174 0.000329486 1.92328V4.80787H36.539V1.92328C36.539 0.861174 35.6778 0 34.6157 0H1.92361ZM36.5387 10.5774H0V23.0767C0 24.1388 0.861174 25 1.92328 25H34.6147C35.6769 25 36.538 24.1388 36.538 23.0767L36.5387 10.5774ZM12.0197 21.1539C12.285 21.1539 12.5003 20.9389 12.5003 20.6733V19.7116C12.5003 19.446 12.285 19.231 12.0197 19.231H5.28885C5.02325 19.231 4.8082 19.446 4.8082 19.7116V20.6733C4.8082 20.9389 5.02326 21.1539 5.28885 21.1539H12.0197ZM25.0003 15.3848C25.0003 14.8539 25.4308 14.4231 25.9616 14.4231H30.7695C31.3004 14.4231 31.7308 14.8539 31.7308 15.3848V20.1923C31.7308 20.7235 31.3004 21.1539 30.7695 21.1539H25.9616C25.4308 21.1539 25.0003 20.7235 25.0003 20.1923V15.3848Z" fill="#607BDA"/>
</svg>