<svg width="132" height="80" viewBox="0 0 132 80" fill="none" xmlns="http://www.w3.org/2000/svg">
<path d="M43.4189 76.9201C40.8419 76.9201 38.4643 76.506 36.2861 75.6777C34.1386 74.8493 32.2672 73.6989 30.672 72.2263C29.1073 70.7231 27.8956 68.9437 27.0366 66.8883C26.1776 64.8328 25.748 62.5779 25.748 60.1236C25.748 57.6694 26.1776 55.4145 27.0366 53.359C27.9262 51.3036 29.1687 49.5396 30.764 48.067C32.3593 46.5637 34.246 45.398 36.4242 44.5696C38.633 43.7413 41.0566 43.3271 43.695 43.3271C45.1982 43.3271 46.6708 43.5112 48.1127 43.8794C49.5853 44.2168 50.9658 44.7537 52.2543 45.49C53.5735 46.1956 54.7699 47.1006 55.8437 48.205L49.9074 55.1537C49.4779 54.6322 48.9564 54.1567 48.3428 53.7272C47.7599 53.2977 47.0696 52.9602 46.272 52.7148C45.505 52.4387 44.6153 52.3006 43.603 52.3006C42.5599 52.3006 41.5628 52.4847 40.6118 52.8528C39.6914 53.1903 38.8785 53.6965 38.1729 54.3714C37.4979 55.0463 36.9611 55.8747 36.5622 56.8564C36.1634 57.8381 35.964 58.9732 35.964 60.2617C35.964 61.4275 36.1634 62.4859 36.5622 63.4369C36.9611 64.388 37.5286 65.2009 38.2649 65.8759C39.0012 66.5508 39.8909 67.0723 40.9339 67.4405C41.977 67.8086 43.1428 67.9927 44.4313 67.9927C45.3516 67.9927 46.226 67.8546 47.0543 67.5785C47.8826 67.3024 48.6342 66.9496 49.3092 66.5201C49.9841 66.0599 50.567 65.5537 51.0578 65.0015L55.7977 72.4564C55 73.3154 53.9416 74.0824 52.6224 74.7573C51.3033 75.4322 49.846 75.9691 48.2508 76.3679C46.6555 76.7361 45.0448 76.9201 43.4189 76.9201Z" fill="#607BDA"/>
<path d="M59.7128 76.46V62.1022C59.7128 59.5226 61.804 57.4314 64.3836 57.4314V57.4314C66.9632 57.4314 69.0544 59.5226 69.0544 62.1022V76.46H59.7128Z" fill="#607BDA"/>
<path d="M107.895 76.46V44.2475H117.835V67.9927H131.64V76.46H107.895Z" fill="#607BDA"/>
<path d="M105.115 76.4594H95.2668L93.5151 71.6736H85.4121L88.7249 64.909H91.0392L90.1128 62.378L95.0809 52.7295L105.115 76.4594Z" fill="#607BDA"/>
<path d="M15.0478 39.6924C12.6242 39.6924 10.4767 39.4316 8.60533 38.9101C6.76462 38.3578 5.13865 37.5909 3.72744 36.6092C2.34691 35.6275 1.10443 34.477 0 33.1578L5.75222 26.7153C7.28615 28.6788 8.88144 29.9826 10.5381 30.6269C12.2254 31.2404 13.8053 31.5472 15.2779 31.5472C15.8608 31.5472 16.3823 31.5012 16.8425 31.4092C17.3027 31.2864 17.6555 31.1024 17.9009 30.8569C18.1464 30.6115 18.2691 30.2741 18.2691 29.8446C18.2691 29.4457 18.131 29.1083 17.8549 28.8322C17.6095 28.5561 17.272 28.326 16.8425 28.1419C16.413 27.9271 15.9375 27.7584 15.416 27.6357C14.9251 27.4823 14.4342 27.3596 13.9434 27.2676C13.4832 27.1755 13.0691 27.0835 12.7009 26.9915C10.8602 26.562 9.24958 26.0404 7.86904 25.4268C6.48851 24.8133 5.33806 24.077 4.41771 23.218C3.49735 22.359 2.80709 21.3773 2.34691 20.2728C1.91741 19.1684 1.70266 17.9259 1.70266 16.5454C1.70266 14.9808 2.05546 13.5542 2.76107 12.2658C3.49735 10.9773 4.46373 9.87283 5.66019 8.95247C6.88733 8.03211 8.26786 7.32651 9.80179 6.83565C11.3664 6.34479 12.977 6.09937 14.6337 6.09937C17.0573 6.09937 19.082 6.32945 20.708 6.78963C22.334 7.21913 23.6992 7.84804 24.8036 8.67636C25.908 9.50468 26.8591 10.4711 27.6567 11.5755L21.8585 17.1436C21.1835 16.4994 20.4779 15.9779 19.7416 15.579C19.0053 15.1495 18.2384 14.8427 17.4407 14.6587C16.6738 14.4439 15.9068 14.3366 15.1399 14.3366C14.4342 14.3366 13.836 14.3979 13.3452 14.5206C12.8543 14.6127 12.4708 14.7814 12.1947 15.0268C11.9186 15.2416 11.7806 15.5484 11.7806 15.9472C11.7806 16.346 11.9493 16.6835 12.2868 16.9596C12.6549 17.205 13.0997 17.4197 13.6213 17.6038C14.1735 17.7879 14.7104 17.9413 15.2319 18.064C15.7841 18.156 16.2443 18.2327 16.6124 18.2941C18.2997 18.6009 19.849 19.0304 21.2602 19.5826C22.6714 20.1041 23.8986 20.779 24.9416 21.6074C26.0154 22.405 26.8284 23.4174 27.3806 24.6445C27.9635 25.841 28.2549 27.2676 28.2549 28.9242C28.2549 31.2864 27.6567 33.2652 26.4602 34.8605C25.2944 36.4558 23.7145 37.6676 21.7204 38.4959C19.7263 39.2935 17.5021 39.6924 15.0478 39.6924Z" fill="#607BDA"/>
<path d="M33.2536 39.2322V7.01972H57.3209V15.0728H42.7793V31.1791H58.1492V39.2322H33.2536ZM37.9934 26.7153V19.1684H55.6183V26.7153H37.9934Z" fill="#607BDA"/>
<path d="M69.0072 39.2325L59.8496 7.02002H69.7895L73.5629 21.5616C73.8083 22.5127 74.0078 23.433 74.1611 24.3227C74.2604 24.786 74.3463 25.2315 74.4188 25.6591C74.4528 25.4465 74.4896 25.2312 74.5293 25.013C74.7134 23.9699 75.0201 22.8195 75.4496 21.5616L79.4532 10.1952H87.0461L91.0497 21.5616C91.4792 22.7888 91.5328 23.754 91.1026 24.967L84.5286 39.2325L82.5926 24.4255L77.2904 39.2325H69.0072Z" fill="#607BDA"/>
<mask id="path-5-outside-1_711_4751" maskUnits="userSpaceOnUse" x="57.3359" y="44.0955" width="13" height="13" fill="black">
<rect fill="white" x="57.3359" y="44.0955" width="13" height="13"/>
<path fill-rule="evenodd" clip-rule="evenodd" d="M69.5693 50.7121C69.5693 53.8141 67.0546 56.3288 63.9526 56.3288C60.8506 56.3288 58.3359 53.8141 58.3359 50.7121C58.3359 47.6101 60.8506 45.0955 63.9526 45.0955C67.0546 45.0955 69.5693 47.6101 69.5693 50.7121ZM63.0543 50.7115C63.0543 51.3319 62.5514 51.8348 61.931 51.8348C61.3106 51.8348 60.8076 51.3319 60.8076 50.7115C60.8076 50.0911 61.3106 49.5881 61.931 49.5881C62.5514 49.5881 63.0543 50.0911 63.0543 50.7115ZM65.9739 51.8348C66.5943 51.8348 67.0973 51.3319 67.0973 50.7115C67.0973 50.0911 66.5943 49.5881 65.9739 49.5881C65.3535 49.5881 64.8506 50.0911 64.8506 50.7115C64.8506 51.3319 65.3535 51.8348 65.9739 51.8348Z"/>
</mask>
<path fill-rule="evenodd" clip-rule="evenodd" d="M69.5693 50.7121C69.5693 53.8141 67.0546 56.3288 63.9526 56.3288C60.8506 56.3288 58.3359 53.8141 58.3359 50.7121C58.3359 47.6101 60.8506 45.0955 63.9526 45.0955C67.0546 45.0955 69.5693 47.6101 69.5693 50.7121ZM63.0543 50.7115C63.0543 51.3319 62.5514 51.8348 61.931 51.8348C61.3106 51.8348 60.8076 51.3319 60.8076 50.7115C60.8076 50.0911 61.3106 49.5881 61.931 49.5881C62.5514 49.5881 63.0543 50.0911 63.0543 50.7115ZM65.9739 51.8348C66.5943 51.8348 67.0973 51.3319 67.0973 50.7115C67.0973 50.0911 66.5943 49.5881 65.9739 49.5881C65.3535 49.5881 64.8506 50.0911 64.8506 50.7115C64.8506 51.3319 65.3535 51.8348 65.9739 51.8348Z" fill="#607BDA"/>
<path d="M63.9526 56.4586C67.1263 56.4586 69.6991 53.8858 69.6991 50.7121H69.4395C69.4395 53.7425 66.9829 56.199 63.9526 56.199V56.4586ZM58.2062 50.7121C58.2062 53.8858 60.7789 56.4586 63.9526 56.4586V56.199C60.9223 56.199 58.4657 53.7425 58.4657 50.7121H58.2062ZM63.9526 44.9657C60.7789 44.9657 58.2062 47.5385 58.2062 50.7121H58.4657C58.4657 47.6818 60.9223 45.2252 63.9526 45.2252V44.9657ZM69.6991 50.7121C69.6991 47.5385 67.1263 44.9657 63.9526 44.9657V45.2252C66.9829 45.2252 69.4395 47.6818 69.4395 50.7121H69.6991ZM61.931 51.9646C62.623 51.9646 63.1841 51.4035 63.1841 50.7115H62.9245C62.9245 51.2602 62.4797 51.705 61.931 51.705V51.9646ZM60.6778 50.7115C60.6778 51.4035 61.2389 51.9646 61.931 51.9646V51.705C61.3822 51.705 60.9374 51.2602 60.9374 50.7115H60.6778ZM61.931 49.4584C61.2389 49.4584 60.6778 50.0194 60.6778 50.7115H60.9374C60.9374 50.1627 61.3822 49.7179 61.931 49.7179V49.4584ZM63.1841 50.7115C63.1841 50.0194 62.623 49.4584 61.931 49.4584V49.7179C62.4797 49.7179 62.9245 50.1627 62.9245 50.7115H63.1841ZM66.9675 50.7115C66.9675 51.2602 66.5226 51.705 65.9739 51.705V51.9646C66.666 51.9646 67.227 51.4035 67.227 50.7115H66.9675ZM65.9739 49.7179C66.5226 49.7179 66.9675 50.1627 66.9675 50.7115H67.227C67.227 50.0194 66.666 49.4584 65.9739 49.4584V49.7179ZM64.9804 50.7115C64.9804 50.1627 65.4252 49.7179 65.9739 49.7179V49.4584C65.2818 49.4584 64.7208 50.0194 64.7208 50.7115H64.9804ZM65.9739 51.705C65.4252 51.705 64.9804 51.2602 64.9804 50.7115H64.7208C64.7208 51.4035 65.2818 51.9646 65.9739 51.9646V51.705Z" fill="#FFFAE0" mask="url(#path-5-outside-1_711_4751)"/>
<path d="M60.5898 54.074C61.2549 54.7391 62.1022 55.192 63.0247 55.3755C63.9471 55.559 64.9033 55.4648 65.7722 55.1049C66.6412 54.745 67.3839 54.1354 67.9064 53.3534C68.429 52.5714 68.7079 51.6519 68.7079 50.7114" stroke="#FFFAE0" stroke-width="0.194671"/>
<path d="M67.3145 47.3488C66.6494 46.6838 65.8021 46.2308 64.8796 46.0474C63.9572 45.8639 63.001 45.958 62.1321 46.318C61.2631 46.6779 60.5204 47.2874 59.9979 48.0694C59.4753 48.8515 59.1964 49.7709 59.1964 50.7114" stroke="#FFFAE0" stroke-width="0.194671"/>
<path d="M63.1885 52.1501C63.1885 52.1501 63.4094 52.4197 63.9523 52.4197C64.4953 52.4197 64.7162 52.1501 64.7162 52.1501" stroke="#FFFAE0" stroke-width="0.194671" stroke-linecap="round"/>
<path fill-rule="evenodd" clip-rule="evenodd" d="M80.4833 73.2145C81.2975 71.4281 80.8242 69.4634 79.4262 68.8263C78.0283 68.1892 76.235 69.121 75.4209 70.9074C74.6067 72.6938 75.08 74.6585 76.478 75.2956C77.8759 75.9327 79.6692 75.001 80.4833 73.2145ZM82.0941 73.9486C83.4264 71.0253 82.6519 67.8104 80.3643 66.7679C78.0767 65.7254 75.1423 67.25 73.8101 70.1733C72.4778 73.0966 73.2523 76.3115 75.5399 77.354C77.8275 78.3965 80.7619 76.8719 82.0941 73.9486Z" fill="#FF96C3"/>
<path fill-rule="evenodd" clip-rule="evenodd" d="M103.387 6.48779C92.6179 27.391 84.5848 46.1736 75.5952 70.5148L73.9033 69.9776C82.9244 45.5512 91.0032 26.6572 101.837 5.62861L103.387 6.48779ZM112.196 10.3306C103.804 32.1101 94.7674 50.9286 82.1784 73.7529L80.6667 72.8219C93.207 50.0856 102.183 31.3875 110.518 9.75579L112.196 10.3306Z" fill="#FF96C3"/>
<path d="M112.101 11.0579C112.833 9.455 112.958 7.69384 112.456 6.09661C111.954 4.49963 110.884 3.25759 109.444 2.60228C108.003 1.94579 106.366 1.95283 104.831 2.62165C103.296 3.29035 102.049 4.54067 101.334 6.11401L99.6928 9.91954L98.4977 13.9282C98.4086 14.1058 98.3871 14.3102 98.4401 14.4922C98.4929 14.6744 98.6161 14.8203 98.7786 14.8949L100.429 15.6471C100.657 15.7503 100.929 15.7053 101.133 15.5232L104.103 12.9147C104.247 12.7892 104.34 12.6117 104.368 12.4219C104.395 12.2317 104.349 12.0433 104.243 11.8992C104.097 11.7012 103.997 11.512 103.937 11.3194C103.591 10.2207 104.169 8.95223 105.225 8.49219C106.281 8.03215 107.421 8.55187 107.767 9.65051C108.112 10.7492 107.534 12.0177 106.478 12.4777C106.292 12.5589 106.084 12.6073 105.84 12.6272C105.662 12.6418 105.492 12.7304 105.364 12.8757C105.238 13.0211 105.165 13.2098 105.164 13.3993L105.144 17.3522C105.142 17.6243 105.285 17.8617 105.512 17.9649L107.385 18.8186C107.544 18.89 107.728 18.8896 107.898 18.8155L107.913 18.8093C108.086 18.729 108.226 18.5791 108.3 18.3958L110.424 14.8284L112.101 11.0579Z" fill="#FF96C3"/>
</svg>
