<svg width="64" height="58" viewBox="0 0 64 58" fill="none" xmlns="http://www.w3.org/2000/svg">
<g clip-path="url(#clip0_1071_6899)">
<path fill-rule="evenodd" clip-rule="evenodd" d="M0.871094 5.7859C0.871094 2.58437 3.6733 0 7.13533 0H57.2492C60.7113 0 63.5135 2.58437 63.5135 5.7859V40.4743C63.5135 43.6758 60.7113 46.2602 57.2492 46.2602H41.6638L33.9296 56.9641C33.7389 57.2283 33.4805 57.4448 33.1775 57.5946C32.8744 57.7444 32.536 57.8228 32.1923 57.8228C31.8486 57.8228 31.5101 57.7444 31.2071 57.5946C30.904 57.4448 30.6457 57.2283 30.455 56.9641L22.7249 46.2602H7.13533C3.6733 46.2602 0.871094 43.6758 0.871094 40.4743V5.7859ZM30.2044 33.6739L46.291 16.6943L43.1505 14.1562L30.004 28.0346L23.2302 21.7743L20.2735 24.5052L30.2044 33.6739Z" fill="#FF96C3"/>
</g>
<defs>
<clipPath id="clip0_1071_6899">
<rect width="62.6424" height="57.859" fill="white" transform="translate(0.871094)"/>
</clipPath>
</defs>
</svg>
