<svg width="37" height="25" viewBox="0 0 37 25" fill="none" xmlns="http://www.w3.org/2000/svg">
<rect width="37" height="25" rx="3" fill="#607BDA"/>
<path d="M17.275 13.825C17.3584 13.825 19.2917 13.9083 20.4417 13.625H20.45C21.775 13.3 23.6167 12.3667 24.0917 9.31667C24.0917 9.31667 25.15 5.5 19.9 5.5H15.3917C14.9834 5.5 14.6334 5.8 14.5667 6.2L12.65 18.3333C12.6084 18.5833 12.8084 18.8167 13.0584 18.8167H15.9167L16.6167 14.3833C16.6667 14.0667 16.9417 13.825 17.275 13.825Z" fill="#FFFAE0"/>
<path d="M24.8256 9.9082C24.1506 13.0165 22.0256 14.6582 18.6423 14.6582H17.4173L16.5589 20.0915C16.5256 20.3082 16.6923 20.4999 16.9089 20.4999H18.4923C18.7756 20.4999 19.0256 20.2915 19.0673 20.0082C19.1339 19.6749 19.5006 17.2415 19.5756 16.8249C19.6173 16.5415 19.8673 16.3332 20.1506 16.3332H20.5173C22.8673 16.3332 24.7089 15.3749 25.2506 12.6165C25.4673 11.4999 25.3506 10.5832 24.8256 9.9082Z" fill="#FFFAE0"/>
</svg>
